<?xml version="1.0" encoding="utf-8"?>
<!-- Svg Vector Icons : http://www.onlinewebfonts.com/icon -->
<!DOCTYPE svg PUBLIC "-//W3C//DTD SVG 1.1//EN" "http://www.w3.org/Graphics/SVG/1.1/DTD/svg11.dtd">
<svg version="1.1" xmlns="http://www.w3.org/2000/svg" xmlns:xlink="http://www.w3.org/1999/xlink" x="0px" y="0px" viewBox="0 0 1000 1000" enable-background="new 0 0 1000 1000" xml:space="preserve">
<metadata> Svg Vector Icons : http://www.onlinewebfonts.com/icon </metadata>
<g><g><g><path d="M785.6,840.9c-2.5,27.1-127.7,27.2-282.1,27.2c-154.4,0-279.6-0.2-282.1-27.2H29.6c-6.7,0-13.3-1.2-19.6-3.1v43.4c0,24.8,20.1,44.9,44.9,44.9h890.3c24.8,0,44.8-20.1,44.8-44.8v-40.9c-1.7,0.1-3.3,0.5-5.2,0.5H785.6z"/><path d="M945.1,201.7H54.9c-24.8,0-44.9,20.1-44.9,44.9v81.3c6.2,0.8,13,1.6,19.6,1.6h955.3c1.9,0,3.4-0.2,5.2-0.3v-82.6C990,221.8,969.9,201.7,945.1,201.7z M107.6,294.7c-16.8,0-30.3-13.6-30.3-30.3s13.6-30.3,30.3-30.3c16.7,0,30.3,13.6,30.3,30.3C137.9,281.2,124.3,294.7,107.6,294.7z M376.8,294.7c-16.7,0-30.3-13.6-30.3-30.3s13.6-30.3,30.3-30.3c16.8,0,30.3,13.6,30.3,30.3C407.2,281.2,393.6,294.7,376.8,294.7z M556.3,294.7c-16.8,0-30.3-13.6-30.3-30.3s13.6-30.3,30.3-30.3c16.7,0,30.3,13.6,30.3,30.3C586.7,281.2,573.1,294.7,556.3,294.7z M735.8,294.7c-16.7,0-30.3-13.6-30.3-30.3s13.6-30.3,30.3-30.3c16.8,0,30.4,13.6,30.4,30.3C766.2,281.2,752.6,294.7,735.8,294.7z M915.3,294.7c-16.7,0-30.4-13.6-30.4-30.3s13.6-30.3,30.4-30.3c16.7,0,30.3,13.6,30.3,30.3C945.7,281.2,932.1,294.7,915.3,294.7z"/><path d="M29.6,350.9c-6.9,0-13.4-0.7-19.6-1.5v465.9c5.9,2.6,12.5,4.3,19.6,4.3h236c50.2-7.4,137.8-7.5,237.9-7.5c100.1,0,187.8,0.1,237.9,7.5h243.4c1.9,0,3.5-0.4,5.2-0.6V350.5c-1.8,0.1-3.2,0.3-5.2,0.3H29.6z M883.5,710.8c0,24.8-20.1,44.8-44.8,44.8H161.4c-24.8,0-44.9-20.1-44.9-44.8V459.6c0-24.8,20.1-44.8,44.9-44.8h677.2c24.8,0,44.9,20.1,44.9,44.8V710.8z"/><path d="M954.1,73.9H56.6C31.8,73.9,10,93.6,10,118.3v44.9c0,24.8,21.8,17.2,46.6,17.2h897.5c24.8,0,35.9,7.6,35.9-17.2v-44.9C990,93.6,978.9,73.9,954.1,73.9z"/></g></g><g></g><g></g><g></g><g></g><g></g><g></g><g></g><g></g><g></g><g></g><g></g><g></g><g></g><g></g><g></g></g>
</svg>