<?xml version="1.0" encoding="utf-8"?>
<!-- Svg Vector Icons : http://www.onlinewebfonts.com/icon -->
<!DOCTYPE svg PUBLIC "-//W3C//DTD SVG 1.1//EN" "http://www.w3.org/Graphics/SVG/1.1/DTD/svg11.dtd">
<svg version="1.1" xmlns="http://www.w3.org/2000/svg" xmlns:xlink="http://www.w3.org/1999/xlink" x="0px" y="0px" viewBox="0 0 1000 1000" enable-background="new 0 0 1000 1000" xml:space="preserve">
<metadata> Svg Vector Icons : http://www.onlinewebfonts.com/icon </metadata>
<g><path d="M916.5,308.5V254c0-67.7-54.8-122.5-122.5-122.5H206c-67.6,0-122.5,54.8-122.5,122.5v54.5c-42.2,11-73.5,49-73.5,94.6v465.5h980V403C990,357.4,958.7,319.4,916.5,308.5z M206,180.5h588c40.6,0,73.5,32.9,73.5,73.5v54.5c-42.2,11-73.5,49-73.5,94.6v73.5H206V403c0-45.6-31.3-83.6-73.5-94.6V254C132.5,213.4,165.4,180.5,206,180.5z M794,525.5V599H524.5v-73.5H794z M206,525.5h269.5V599H206V525.5z M942,821.6H58V403c0-27.9,22.6-50.5,50.5-50.5c27.9,0,48.5,22.6,48.5,50.5v245h45.9h3.1h588h6.1H843V403c0-27.9,21.6-50.5,49.5-50.5S942,375.1,942,403V821.6z"/></g>
</svg>