<?xml version="1.0" encoding="utf-8"?>
<!-- Svg Vector Icons : http://www.onlinewebfonts.com/icon -->
<!DOCTYPE svg PUBLIC "-//W3C//DTD SVG 1.1//EN" "http://www.w3.org/Graphics/SVG/1.1/DTD/svg11.dtd">
<svg version="1.1" xmlns="http://www.w3.org/2000/svg" xmlns:xlink="http://www.w3.org/1999/xlink" x="0px" y="0px" viewBox="0 0 1000 1000" enable-background="new 0 0 1000 1000" xml:space="preserve">
<metadata> Svg Vector Icons : http://www.onlinewebfonts.com/icon </metadata>
<g><path d="M857.3,368c-3-44.7-36.3-81.2-79.5-89.2c-10.3-61.6-33.1-133.2-82.2-187.4C647,37.6,581.3,9.7,500.5,8.6c-1.7,0-3.4,0-5.1,0c-77.7,0-141.3,25.9-188.9,77c-50.8,54.5-74,128.4-84.3,192c-47.7,4.3-85.6,42.9-88.6,90.9L11.3,883.2l-1.3,5.3v5.4c0,53.8,43.8,97.6,97.6,97.6h784.9c53.8,0,97.6-43.8,97.6-97.6v-5.8L857.3,368z M573.5,560.1c0,40.6-32.9,73.5-73.5,73.5c-40.6,0-73.5-32.9-73.5-73.5c0-40.6,32.9-73.5,73.5-73.5C540.6,486.6,573.5,519.5,573.5,560.1z M360.8,135.9c34.3-36.7,79.8-54.1,138.7-53.3c60.2,0.9,106.4,19.9,141.2,58.3c34.4,37.9,52.4,89.1,61.7,136.3H297.4C306.6,227.9,324.9,174.2,360.8,135.9z M892.4,899H107.6c-1.9,0-3.5-1-4.4-2.5l70.7-297.7c0.9,0,1.7,0.1,2.6,0.1c0,0,217.1,62.5,338.3,59.5c113-2.8,283.4-52,306.1-58.7l75.8,297.1C895.8,898,894.2,899,892.4,899z"/><path d="M453.5,560.1c0,25.7,20.8,46.5,46.5,46.5c25.7,0,46.5-20.8,46.5-46.5c0-25.7-20.8-46.5-46.5-46.5C474.3,513.6,453.5,534.4,453.5,560.1L453.5,560.1z"/></g>
</svg>