<?xml version="1.0" encoding="utf-8"?>
<!-- Svg Vector Icons : http://www.onlinewebfonts.com/icon -->
<!DOCTYPE svg PUBLIC "-//W3C//DTD SVG 1.1//EN" "http://www.w3.org/Graphics/SVG/1.1/DTD/svg11.dtd">
<svg version="1.1" xmlns="http://www.w3.org/2000/svg" xmlns:xlink="http://www.w3.org/1999/xlink" x="0px" y="0px" viewBox="0 0 1000 1000" enable-background="new 0 0 1000 1000" xml:space="preserve">
<metadata> Svg Vector Icons : http://www.onlinewebfonts.com/icon </metadata>
<g><path d="M989.8,411.7c-2.8-38-34.2-68.1-72.9-68.1c-38.7,0-70.1,30.1-72.9,68.1h-0.3v146.3h-451c-12.5-54.3-60.2-95.2-118.3-95.2H156.2V143h0.3c-2.3-38.5-33.9-69.2-73.1-69.2c-39.1,0-70.8,30.6-73.1,69.2H10v733.5v49.7h49h48.2h49v-49h687.5v49h49H941h49v-49.7V411.7H989.8z M107.2,876.5H59V143h0.9c2.1-11.4,11.6-20.2,23.6-20.2c12,0,21.5,8.8,23.6,20.2h0.1V876.5z M156.2,511.8h118.2c30.9,0,57.2,19.1,68.1,46.2H156.2V511.8z M843.8,828.2H156.2V606.9h687.5V828.2z M941,876.5h-48.2V412.7h0.6c2.1-11.4,11.6-20.2,23.6-20.2c12,0,21.5,8.8,23.6,20.2h0.5V876.5z"/><path d="M486.5,413.8c6.3,4.9,13.6,8.8,21.9,11.6c8.3,2.9,17.2,4.3,26.7,4.3c9.5,0,18.4-1.4,26.7-4.3c8.3-2.9,15.6-6.7,21.9-11.6c6.3-4.9,11.2-10.6,14.8-17.1c3.6-6.5,5.4-13.5,5.4-21c0-9.6-2.9-18.5-8.8-26.6c0.7-0.5,1.4-1.1,2.2-2l2.5-2.5c2.6-2.9,4.7-6.6,6.4-10.9c1.6-4.3,2.4-8.7,2.3-13.1c-0.1-4.4-1.3-8.5-3.6-12.2c-2.3-3.7-5.9-6.5-10.8-8.3c-4.4-1.6-8.6-2.1-12.6-1.2c-4,0.8-7.5,2.4-10.6,4.8c-3.1,2.4-5.7,5.3-7.8,8.8c-2.1,3.5-3.4,7.1-3.9,10.6c0,0.3,0,0.6-0.1,0.9c-0.1,0.2-0.1,0.5-0.1,0.9c-3.7-1.1-7.6-2-11.5-2.5c-3.9-0.5-8-0.7-12.2-0.7c-5.5,0-10.8,0.5-15.7,1.5c-0.7-3.6-2-7.1-4-10.6s-4.6-6.4-7.7-8.8c-3.1-2.4-6.6-4-10.6-4.8c-4-0.8-8.2-0.4-12.6,1.2c-4.9,1.8-8.5,4.6-10.8,8.3c-2.3,3.8-3.5,7.8-3.7,12.2c-0.2,4.4,0.6,8.8,2.2,13.1c1.6,4.3,3.8,8,6.6,10.9c-3.9,4.4-7,9.3-9.2,14.5c-2.2,5.3-3.3,10.8-3.3,16.5c0,7.5,1.8,14.5,5.4,21C475.3,403.2,480.3,408.9,486.5,413.8z M520.9,383.1c1-0.9,2.2-1.6,3.8-2c1.6-0.4,3.3-0.7,5.1-0.7c1.9-0.1,3.6-0.1,5.3-0.1s3.3,0,5.1,0.1c1.8,0.1,3.5,0.3,5.1,0.7c1.6,0.4,3,1.1,4,2c1.1,0.9,1.6,2.1,1.6,3.8c0,1.6-0.4,3.4-1.1,5.4c-0.7,2-1.8,3.8-3.1,5.5s-3,3.1-5,4.3c-2,1.1-4.3,1.7-6.7,1.7c-2.8,0-5.1-0.6-7.1-1.7c-2-1.1-3.6-2.6-4.9-4.3c-1.3-1.7-2.2-3.5-2.8-5.5c-0.6-2-0.9-3.8-0.9-5.4C519.4,385.2,519.9,384,520.9,383.1z"/><path d="M426.6,437.4c3.2,4,7.9,7.5,14.1,10.4c11.1,5.2,20.3,9.2,27.6,12c-0.2,1.3-0.3,2.5-0.4,3.5c-0.1,1.1-0.1,2.2-0.1,3.5c0,4.3,0.3,8.2,1,11.9c0.7,3.7,1.6,7.1,2.9,10.4c-3.1,0.8-6.3,1.6-9.5,2.5c-3.3,0.9-6.6,1.8-10,2.6c-4.7,1.2-8.4,3.7-11.1,7.6c-2.7,3.9-4.4,8.3-5.3,13.2c-0.8,4.9-0.7,9.9,0.5,15.2c1.1,5.2,3.2,9.7,6.1,13.5c2.9,3.7,6.8,6.4,11.5,8c4.7,1.5,10.3,1.1,16.9-1.4c9.8-3.4,18.3-6.7,25.4-9.8c7.2-3,13.1-5.8,17.9-8c5.4-2.8,10-5.2,14-7.3c1.8,0.1,3.5,0.3,5,0.3c1.6,0.1,3.2,0.1,5,0.1c0.8,0,1.6,0,2.2-0.1c0.6-0.1,1.4-0.1,2.2-0.1c1.6,1,7.1,3.9,16.3,8.6c9.2,4.7,22.7,10.2,40.5,16.4c6.5,2.4,12.2,2.9,16.9,1.4c4.7-1.6,8.5-4.2,11.5-8c2.9-3.8,5-8.3,6.1-13.5c1.1-5.2,1.3-10.3,0.6-15.2c-0.7-4.9-2.4-9.3-5.1-13.2c-2.7-3.9-6.4-6.4-11.1-7.6c-4.9-1.2-9.5-2.4-13.9-3.7c1.3-3.4,2.4-7.1,3.2-11c0.8-3.9,1.2-8.2,1.2-12.7c0-1.5,0-2.9-0.1-4.3c-0.1-1.4-0.2-2.8-0.4-4.3c2.9-1.3,6.2-2.7,9.8-4.3c3.6-1.6,7.5-3.3,11.7-5.3c6.2-3,10.9-6.4,14.1-10.4c3.2-4,5.1-8.1,5.9-12.3c0.7-4.2,0.4-8.3-1-12.1c-1.4-3.8-3.5-7.1-6.4-9.7c-2.9-2.6-6.3-4.3-10.4-5.1c-4.1-0.8-8.3-0.3-12.7,1.7c-1.8,0.8-3.5,1.5-5.3,2.1c-1.7,0.6-3.5,1.3-5.3,2.1c-3.3,5.9-7.5,11.3-12.6,16.3c-5.1,5-10.9,9.2-17.4,12.7c-6.4,3.5-13.5,6.2-21,8.2c-7.6,2-15.5,3-23.8,3c-8.6,0-16.8-1.1-24.6-3.2c-7.8-2.1-14.9-5.1-21.5-8.8c-6.6-3.7-12.5-8.2-17.6-13.5c-5.1-5.2-9.2-10.9-12.4-17.1c-1.1-0.5-2.2-1-3.3-1.5c-1.1-0.5-2.2-0.9-3.3-1.2c-4.4-2-8.6-2.5-12.6-1.7c-4,0.8-7.4,2.5-10.3,5.1c-2.9,2.6-5,5.8-6.4,9.7c-1.4,3.8-1.7,7.9-1,12.1C421.5,429.3,423.4,433.4,426.6,437.4z"/></g>
</svg>