<?xml version="1.0" encoding="utf-8"?>
<!-- Svg Vector Icons : http://www.onlinewebfonts.com/icon -->
<!DOCTYPE svg PUBLIC "-//W3C//DTD SVG 1.1//EN" "http://www.w3.org/Graphics/SVG/1.1/DTD/svg11.dtd">
<svg version="1.1" xmlns="http://www.w3.org/2000/svg" xmlns:xlink="http://www.w3.org/1999/xlink" x="0px" y="0px" viewBox="0 0 1000 1000" enable-background="new 0 0 1000 1000" xml:space="preserve">
<metadata> Svg Vector Icons : http://www.onlinewebfonts.com/icon </metadata>
<g><path d="M875.1,368.2V181.1c0-16.9-13.7-30.6-30.6-30.6s-30.6,13.7-30.6,30.6V368h-61.3V239.7c0,0,0,0,0,0c0-16.9-13.7-30.6-30.6-30.6s-30.6,13.7-30.6,30.6h0V368H354.5v-42.2h153.1c33.8,0,61.3-27.4,61.3-61.3V80.8c0-33.8-27.4-61.3-61.3-61.3H140.1c-33.8,0-61.3,27.4-61.3,61.3v183.8c0,33.8,27.4,61.3,61.3,61.3h153.1V368H132.5C64.8,368,10,422.8,10,490.5v397.8c0,50.7,41.1,91.9,91.9,91.9c50.7,0,91.9-41.1,91.9-91.9h0.3V575.9c0-13.5,11-24.5,24.5-24.5h352.8c13.5,0,24.5,11,24.5,24.5v373.9c0,16.9,13.7,30.6,30.6,30.6h30.6h8.6h201.8c67.7,0,122.5-54.8,122.5-122.5V490.5C990,425.4,939.2,372.2,875.1,368.2z M164.6,264.5c-13.5,0-24.5-11-24.5-24.5V105.3c0-13.5,11-24.5,24.5-24.5h318.5c13.5,0,24.5,11,24.5,24.5V240c0,13.5-11,24.5-24.5,24.5H164.6z M928.8,833.5c0,47.4-38.4,85.7-85.8,85.7H665.7h-8.6V551.4c0-33.8-27.4-61.2-61.3-61.2H194c-33.8,0-61.3,27.4-61.3,61.2v336.9h-0.3c0,16.9-13.7,30.6-30.6,30.6c-16.9,0-30.6-13.7-30.6-30.6V515c0-47.4,38.4-85.8,85.7-85.8h686c47.4,0,85.8,38.4,85.8,85.8V833.5z"/></g>
</svg>